<svg xmlns="http://www.w3.org/2000/svg" version="1.1" xmlns:xlink="http://www.w3.org/1999/xlink" xmlns:svgjs="http://svgjs.dev/svgjs" viewBox="0 0 800 800"><defs><linearGradient x1="50%" y1="0%" x2="50%" y2="100%" id="ccchaos-grad"><stop stop-color="hsl(206, 75%, 49%)" stop-opacity="1" offset="0%"></stop><stop stop-color="hsl(331, 90%, 56%)" stop-opacity="1" offset="100%"></stop></linearGradient></defs><g stroke-width="2" stroke="url(#ccchaos-grad)" fill="none" stroke-linecap="round"><path d="M364.15 124.24C368.89 109.08 387.24 104.78 395.37 116.76Q401.01 124.19 407.08 131.6 413.53 139 420.34 146.4 427.46 153.81 434.83 161.23 442.39 168.66 450.08 176.12 457.83 183.6 465.57 191.12 473.22 198.69 480.71 206.3 487.98 213.96 494.95 221.69 501.57 229.48 507.78 237.35 513.53 245.29 518.78 253.32 523.51 261.43 527.69 269.64 531.31 277.94 534.38 286.33 536.91 294.83 538.92 303.44 540.46 312.15 541.56 320.96 542.29 329.89 542.7 338.92 542.87 348.07 542.87 357.32 542.8 366.68 542.72 376.14 542.73 385.7 542.91 395.36 543.35 405.12 544.13 414.97 545.31 424.9 546.97 434.91 549.16 445 551.93 455.15 555.32 465.37 559.35 475.64 564.03 485.95 569.37 496.3 575.34 506.68 581.92 517.08 589.08 527.49 596.75 537.9 604.87 548.3 613.38 558.69 622.19 569.04 631.2 579.36 640.34 589.63 649.49 599.85 658.56 609.99 667.44 620.06 676.05 630.05 684.29 639.94 692.08 649.73 699.33 659.4 705.98 668.96 711.96 678.39 717.25 687.68 721.8 696.83C727.03 709.75 714.54 723.98 700.32 721.78Q682.8 716.98 665.27 710.2 647.74 701.92 630.22 692.71 612.69 683.23 595.17 674.13 577.64 666.06 560.11 659.58 542.59 655.14 525.06 653.06 507.54 653.48 490.01 656.37 472.48 661.53 454.96 668.6 437.43 677.09 419.91 686.39 402.38 695.85 384.86 704.82 367.33 712.66 349.8 718.82 332.28 722.88 314.75 724.54 297.23 723.69 279.7 720.4 262.18 714.88 244.65 707.53 227.12 698.87 209.6 689.49 192.07 680.07 174.55 671.25 157.02 663.66 139.5 657.82C125.28 654.67 116.59 639.72 123.14 628.74Q131.66 614.01 139.7 599.64 146.89 585.79 153.6 572.21 159.62 558.98 165.35 545.89 170.84 532.95 176.37 520.04 182.29 507.08 188.62 494.04 195.91 480.77 203.91 467.32 213.17 453.5 223.21 439.41 228.66 432.21 234.32 424.9 240.18 417.49 246.21 409.98 252.37 402.36 258.62 394.62 264.92 386.78 271.23 378.82 277.51 370.76 283.71 362.58 289.79 354.3 295.7 345.9 301.41 337.41 306.86 328.81 312.05 320.11 316.92 311.32 321.47 302.44 325.67 293.48 329.52 284.43 333.01 275.31 336.16 266.12 338.96 256.87 341.45 247.56 343.65 238.2 345.59 228.8 347.32 219.35 348.87 209.88 350.31 200.38 351.68 190.86 353.03 181.33 354.44 171.79 355.95 162.25 357.62 152.73 359.51 143.21 362.91 128.97 364.15 124.24" stroke-dasharray="5 6" transform="rotate(0, 400, 400)" opacity="0.87"></path><path d="M366.74 134.88C370.53 120.27 388.25 116.02 396.92 127.48Q402.82 134.6 409.07 141.7 415.64 148.8 422.48 155.89 429.54 162.99 436.78 170.09 444.14 177.21 451.54 184.35 458.94 191.51 466.27 198.71 473.46 205.94 480.46 213.22 487.2 220.54 493.63 227.92 499.69 235.36 505.35 242.87 510.57 250.44 515.32 258.09 523.07 273.66 529.3 289.5 533.13 305.8 535.7 322.4 536.63 339.5 536.94 356.9 536.9 365.78 536.87 374.76 536.92 383.84 537.13 393.02 537.58 402.29 538.32 411.65 539.43 421.09 540.96 430.62 542.97 440.23 545.5 449.91 548.6 459.65 552.27 469.46 556.53 479.32 561.4 489.23 566.86 499.19 572.89 509.17 579.46 519.18 586.53 529.21 594.06 539.24 601.98 549.28 610.22 559.31 618.71 569.32 627.38 579.31 636.13 589.27 644.88 599.18 653.54 609.04 662.03 618.84 670.25 628.57 678.13 638.22 685.6 647.79 692.58 657.26 699.01 666.63 704.84 675.9 710.04 685.04C716.33 697.99 705.82 710.85 692.1 707.62Q675.19 701.89 658.28 694.59 641.37 686.18 624.45 677.23 607.54 668.3 590.63 659.97 573.71 652.79 556.8 647.22 539.89 643.63 522.98 642.24 506.06 643.14 489.15 646.28 472.24 651.46 455.32 658.33 438.41 666.45 421.5 675.3 404.58 684.3 387.67 692.87 370.76 700.45 353.85 706.55 336.93 710.78 320.02 712.85 303.11 712.65 286.19 710.17 269.28 705.58 252.37 699.18 235.45 691.39 218.54 682.7 201.63 673.68 184.71 664.92 167.8 656.98 150.89 650.39C137.17 646.32 128.54 631.15 134.59 621.1Q142.41 607.54 149.74 594.26 156.29 581.38 162.39 568.68 167.92 556.2 173.24 543.8 178.43 531.44 183.73 519.05 189.49 506.54 195.7 493.9 202.86 480.98 210.7 467.86 219.76 454.35 229.54 440.57 234.83 433.52 240.32 426.36 246 419.11 251.83 411.76 257.79 404.3 263.83 396.74 269.93 389.07 276.05 381.3 282.14 373.43 288.16 365.45 294.08 357.38 299.85 349.21 305.44 340.94 310.81 332.58 315.93 324.13 320.77 315.59 325.31 306.97 329.54 298.28 333.44 289.52 337 280.68 340.23 271.79 343.14 262.84 345.73 253.84 348.03 244.8 350.06 235.71 351.86 226.6 353.46 217.45 354.91 208.29 356.24 199.11 357.52 189.92 358.78 180.72 360.08 171.53 361.48 162.34 363.02 153.17 365.75 139.44 366.74 134.88" stroke-dasharray="6 6" transform="rotate(4.04, 400, 400)" opacity="0.71"></path><path d="M369.91 145.52C372.9 131.44 389.97 127.24 399.05 138.23Q411.46 151.83 424.82 165.4 438.77 178.98 452.9 192.61 466.78 206.33 479.96 220.18 492.05 234.21 502.7 248.44 511.67 262.92 518.82 277.69 524.13 292.77 527.72 308.18 529.81 323.96 530.76 340.1 531 356.63 531.01 373.54 531.34 390.82 532.5 408.47 534.95 426.46 539.11 444.77 545.25 463.36 553.55 482.2 564.01 501.25 576.51 520.44 590.77 539.72 606.38 559.05 622.83 578.35 639.55 597.56 655.92 616.63 671.35 635.48 685.28 654.06 697.25 672.31C704.46 685.21 695.83 696.8 682.63 692.73Q666.36 686.32 650.09 678.72 633.82 670.4 617.56 661.84 601.29 653.57 585.02 646.07 568.76 639.79 552.49 635.11 536.22 632.31 519.95 631.55 503.69 632.89 487.42 636.23 471.15 641.39 454.88 648.05 438.62 655.81 422.35 664.22 406.08 672.76 389.81 680.93 373.55 688.24 357.28 694.25 341.01 698.6 324.74 701.04 308.47 701.41 292.21 699.7 275.94 696 259.67 690.54 243.4 683.65 227.14 675.73 210.87 667.26 194.6 658.74 178.33 650.7 162.06 643.6C148.87 638.82 140.27 623.57 145.81 614.33Q152.99 601.77 159.55 589.5 165.53 577.43 171.02 565.51 176.14 553.68 181.05 541.87 185.97 530.02 191.1 518.08 196.65 505.97 202.81 493.67 209.73 481.11 217.53 468.26 226.25 455.09 235.88 441.56 246.33 427.66 257.46 413.38 269.05 398.71 280.86 383.65 292.59 368.21 303.96 352.4 314.7 336.25 324.54 319.78 333.31 303.02 340.87 286.01 347.18 268.77 352.29 251.36 356.32 233.82 359.49 216.18 362.09 198.49 364.44 180.79 366.92 163.12 369.91 145.52 369.91 145.52 369.91 145.52" stroke-dasharray="8 4" transform="rotate(8.08, 400, 400)" opacity="0.15"></path><path d="M373.54 156.14C375.89 142.63 392.37 138.49 401.7 148.97Q414.16 161.96 427.28 174.92 440.73 187.89 454.12 200.9 467.07 213.98 479.21 227.18 490.22 240.53 499.82 254.07 507.85 267.83 514.2 281.84 518.9 296.12 522.07 310.72 523.93 325.64 524.8 340.89 525.07 356.5 525.17 372.47 525.55 388.79 526.68 405.46 528.96 422.46 532.75 439.78 538.32 457.4 545.83 475.27 555.32 493.37 566.71 511.66 579.79 530.1 594.25 548.62 609.67 567.19 625.57 585.74 641.42 604.23 656.7 622.6 670.89 640.78 683.54 658.73C691.48 671.47 684.57 681.93 671.92 677.25Q656.33 670.41 640.74 662.74 625.14 654.67 609.55 646.65 593.96 639.1 578.36 632.46 562.77 627.07 547.18 623.24 531.59 621.18 515.99 621 500.4 622.71 484.81 626.22 469.21 631.34 453.62 637.77 438.03 645.18 422.43 653.15 406.84 661.24 391.25 669.01 375.66 676.04 360.06 681.94 344.47 686.38 328.88 689.11 313.28 690 297.69 688.99 282.1 686.14 266.5 681.59 250.91 675.61 235.32 668.53 219.72 660.72 204.13 652.62 188.54 644.67 172.94 637.32C160.3 632.07 151.73 616.84 156.74 608.32Q163.2 596.68 169.1 585.22 174.49 573.88 179.48 562.6 184.19 551.33 188.8 540.02 193.5 528.6 198.47 517.04 203.9 505.28 209.94 493.29 216.74 481.03 224.38 468.47 232.88 455.59 242.23 442.36 252.34 428.78 263.08 414.83 274.26 400.52 285.64 385.85 296.98 370.84 308.03 355.49 318.51 339.83 328.22 323.89 336.95 307.69 344.59 291.27 351.06 274.66 356.39 257.89 360.64 241.01 364 224.04 366.67 207.04 368.94 190.03 372.33 164.6 373.54 156.14" stroke-dasharray="8 9" transform="rotate(12.12, 400, 400)" opacity="0.16"></path><path d="M377.57 166.76C379.43 153.8 395.33 149.73 404.74 159.71Q417.06 172.1 429.78 184.46 442.58 196.81 455.12 209.2 467.09 221.66 478.18 234.22 488.12 246.9 496.72 259.75 503.85 272.79 509.46 286.06 513.6 299.57 516.39 313.36 518.05 327.44 518.85 341.82 519.15 356.53 519.32 371.57 519.76 386.93 520.85 402.62 522.97 418.64 526.43 434.97 531.46 451.58 538.23 468.47 546.79 485.6 557.11 502.95 569.04 520.47 582.33 538.13 596.67 555.88 611.64 573.68 626.82 591.49 641.74 609.25 655.94 626.91 669 644.43C677.47 656.92 672.1 666.37 660.02 661.27Q645.13 654.24 630.24 646.71 615.34 639.05 600.45 631.67 585.56 624.91 570.67 619.14 555.78 614.62 540.88 611.61 525.99 610.23 511.1 610.57 496.21 612.61 481.32 616.24 466.42 621.28 451.53 627.48 436.64 634.53 421.75 642.07 406.86 649.72 391.97 657.1 377.07 663.83 362.18 669.59 347.29 674.08 332.4 677.06 317.51 678.41 302.61 678.04 287.72 675.97 272.83 672.31 257.94 667.24 243.05 661.03 228.16 653.97 213.26 646.42 198.37 638.77 183.48 631.4C171.4 625.88 162.87 610.83 167.36 602.93Q173.13 592.07 178.4 581.3 183.25 570.57 187.79 559.83 192.16 549.04 196.51 538.14 201.02 527.1 205.86 515.87 211.18 504.42 217.12 492.72 223.79 480.75 231.26 468.47 239.53 455.87 248.6 442.95 258.36 429.69 268.7 416.09 279.45 402.16 290.41 387.9 301.35 373.32 312.05 358.46 322.27 343.31 331.8 327.91 340.47 312.29 348.16 296.47 354.77 280.49 360.31 264.37 364.8 248.16 368.38 231.88 371.2 215.57 373.49 199.26 376.55 174.87 377.57 166.76" stroke-dasharray="4 7" transform="rotate(16.16, 400, 400)" opacity="0.10"></path><path d="M381.89 177.38C383.41 164.97 398.73 160.97 408.06 170.48Q420.05 182.26 432.21 194.01 444.24 205.76 455.87 217.54 466.82 229.38 476.85 241.29 485.75 253.32 493.39 265.5 499.68 277.84 504.61 290.37 508.23 303.12 510.69 316.12 512.16 329.37 512.91 342.91 513.24 356.73 513.48 370.85 513.96 385.27 515.03 400 516.99 415.03 520.13 430.36 524.67 445.98 530.74 461.86 538.44 478 547.74 494.36 558.54 510.92 570.68 527.66 583.88 544.53 597.85 561.5 612.22 578.52 626.59 595.57 640.57 612.59 653.76 629.55C662.57 641.68 658.53 650.28 647.04 644.98Q632.87 637.98 618.7 630.76 604.53 623.65 590.36 616.98 576.19 611.06 562.02 606.15 547.85 602.48 533.68 600.22 519.51 599.47 505.34 600.27 491.17 602.58 477 606.29 462.83 611.23 448.66 617.19 434.5 623.88 420.33 630.99 406.16 638.21 391.99 645.2 377.82 651.64 363.65 657.24 349.48 661.73 335.31 664.92 321.14 666.65 306.97 666.85 292.8 665.52 278.63 662.7 264.46 658.53 250.29 653.2 236.13 646.95 221.96 640.07 207.79 632.88 193.62 625.71C182.13 620.13 173.67 605.39 177.65 598.01Q182.77 587.8 187.46 577.6 191.83 567.38 195.98 557.1 200.05 546.7 204.19 536.16 208.55 525.44 213.27 514.51 218.5 503.35 224.34 491.92 230.88 480.22 238.17 468.22 246.21 455.92 254.97 443.31 264.38 430.39 274.32 417.16 284.64 403.62 295.16 389.79 305.69 375.68 316.02 361.31 325.95 346.69 335.29 331.86 343.87 316.82 351.57 301.62 358.3 286.28 364.03 270.83 368.77 255.29 372.59 239.7 375.62 224.08 378.04 208.48 380.97 185.14 381.89 177.38" stroke-dasharray="2 9" transform="rotate(20.200000000000003, 400, 400)" opacity="0.10"></path><path d="M386.36 187.98C387.71 176.13 402.43 172.23 411.53 181.24Q423.03 192.42 434.48 203.58 445.66 214.73 456.31 225.9 466.22 237.12 475.21 248.4 483.12 259.79 489.85 271.29 495.36 282.94 499.66 294.76 502.82 306.77 504.97 318.99 506.28 331.44 506.99 344.14 507.35 357.09 507.64 370.31 508.16 383.81 509.2 397.59 511.02 411.65 513.87 425.99 517.95 440.61 523.38 455.48 530.26 470.61 538.58 485.97 548.31 501.54 559.3 517.31 571.37 533.23 584.27 549.3 597.71 565.47 611.38 581.71 624.92 597.98 637.99 614.26C646.94 625.95 643.97 633.8 633.08 628.49Q619.65 621.72 606.22 614.97 592.79 608.51 579.36 602.62 565.93 597.54 552.5 593.48 539.07 590.61 525.64 589.05 512.22 588.87 498.79 590.07 485.36 592.6 471.93 596.35 458.5 601.18 445.07 606.88 431.64 613.21 418.21 619.91 404.78 626.7 391.35 633.3 377.92 639.44 364.49 644.85 351.07 649.32 337.64 652.66 324.21 654.72 310.78 655.43 297.35 654.76 283.92 652.73 270.49 649.42 257.06 644.98 243.63 639.58 230.2 633.46 216.77 626.87 203.34 620.08C192.45 614.62 184.08 600.33 187.58 593.38Q192.1 583.7 196.29 573.99 200.24 564.19 204.06 554.27 207.89 544.21 211.86 533.98 216.09 523.55 220.72 512.9 225.86 502 231.6 490.84 238 479.42 245.1 467.71 252.9 455.72 261.35 443.44 270.4 430.87 279.93 418.03 289.82 404.91 299.9 391.53 310 377.9 319.96 364.04 329.57 349.98 338.69 335.71 347.15 321.29 354.83 306.71 361.64 292.02 367.53 277.24 372.5 262.38 376.59 247.49 379.87 232.57 382.48 217.67 385.47 195.39 386.36 187.98" stroke-dasharray="11 11" transform="rotate(24.24, 400, 400)" opacity="0.87"></path><path d="M390.89 198.58C392.18 187.28 406.3 183.48 415.03 192.02Q425.87 202.61 436.52 213.17 446.76 223.72 456.4 234.29 465.28 244.89 473.25 255.56 480.21 266.3 486.09 277.15 490.89 288.12 494.61 299.24 497.36 310.52 499.23 321.98 500.41 333.65 501.08 345.53 501.46 357.63 501.81 369.98 502.36 382.57 503.37 395.42 505.06 408.52 507.64 421.89 511.29 435.5 516.13 449.37 522.24 463.48 529.65 477.83 538.34 492.39 548.22 507.15 559.14 522.09 570.94 537.2 583.37 552.44 596.19 567.79 609.1 583.22 621.83 598.7C630.7 609.86 628.59 617.11 618.32 611.97Q605.64 605.61 592.96 599.45 580.29 593.72 567.61 588.65 554.93 584.41 542.25 581.17 529.57 579.05 516.9 578.13 504.22 578.44 491.54 579.98 478.86 582.68 466.18 586.45 453.51 591.13 440.83 596.57 428.15 602.54 415.47 608.83 402.79 615.21 390.12 621.43 377.44 627.25 364.76 632.47 352.08 636.87 339.4 640.31 326.73 642.65 314.05 643.8 301.37 643.72 288.69 642.41 276.01 639.92 263.33 636.35 250.66 631.82 237.98 626.51 225.3 620.62 212.62 614.37C202.34 609.2 194.13 595.49 197.19 588.88Q201.18 579.64 204.92 570.31 208.52 560.86 212.07 551.26 215.71 541.5 219.54 531.54 223.67 521.37 228.22 510.97 233.28 500.34 238.91 489.46 245.17 478.31 252.07 466.91 259.61 455.25 267.75 443.32 276.42 431.13 285.54 418.7 294.98 406.02 304.61 393.11 314.29 379.99 323.84 366.67 333.13 353.16 341.99 339.5 350.29 325.69 357.91 311.75 364.77 297.72 370.8 283.61 375.98 269.45 380.33 255.26 383.89 241.05 386.75 226.85 389.96 205.63 390.89 198.58" stroke-dasharray="3 7" transform="rotate(28.28, 400, 400)" opacity="0.24"></path><path d="M395.33 209.16C396.68 198.44 410.2 194.75 418.41 202.8Q428.48 212.8 438.23 222.77 447.49 232.73 456.11 242.7 463.97 252.7 470.97 262.75 477.03 272.86 482.13 283.06 486.26 293.37 489.48 303.8 491.84 314.37 493.48 325.09 494.53 335.99 495.17 347.07 495.58 358.36 495.98 369.85 496.56 381.56 497.53 393.49 499.1 405.66 501.43 418.06 504.69 430.7 508.97 443.57 514.38 456.67 520.93 469.99 528.64 483.53 537.44 497.26 547.24 511.19 557.92 525.3 569.28 539.56 581.15 553.95 593.28 568.46 605.44 583.07C614.07 593.62 612.59 600.38 602.92 595.55Q591 589.74 579.08 584.26 567.16 579.32 555.24 575.07 543.32 571.65 531.4 569.19 519.48 567.76 507.56 567.42 495.64 568.17 483.72 569.99 471.8 572.81 459.88 576.55 447.96 581.08 436.04 586.24 424.12 591.86 412.2 597.75 400.28 603.72 388.36 609.55 376.44 615.06 364.52 620.06 352.6 624.38 340.68 627.87 328.76 630.42 316.84 631.94 304.92 632.39 293 631.73 281.08 630.01 269.16 627.26 257.24 623.6 245.32 619.14 233.4 614.03 221.48 608.44C211.8 603.68 203.81 590.66 206.49 584.33Q210.02 575.45 213.39 566.44 216.7 557.29 220.04 547.97 223.52 538.46 227.25 528.76 231.31 518.84 235.79 508.7 240.76 498.34 246.28 487.73 252.38 476.89 259.07 465.81 266.34 454.49 274.16 442.94 282.45 431.16 291.15 419.16 300.14 406.95 309.31 394.54 318.54 381.94 327.69 369.17 336.62 356.25 345.2 343.19 353.31 330.02 360.84 316.74 367.7 303.38 373.83 289.95 379.19 276.49 383.78 262.99 387.62 249.5 390.77 236.02 394.31 215.86 395.33 209.16" stroke-dasharray="9 1" transform="rotate(32.32, 400, 400)" opacity="0.65"></path><path d="M399.57 219.75C401.07 209.59 413.97 206.02 421.56 213.6Q430.76 223.01 439.55 232.39 447.81 241.76 455.42 251.14 462.29 260.54 468.36 269.98 473.59 279.47 477.97 289.04 481.51 298.69 484.26 308.44 486.29 318.32 487.72 328.32 488.67 338.47 489.28 348.78 489.72 359.26 490.15 369.92 490.75 380.77 491.7 391.82 493.15 403.08 495.25 414.54 498.14 426.21 501.93 438.1 506.68 450.2 512.44 462.51 519.22 475.02 526.99 487.73 535.7 500.63 545.26 513.7 555.52 526.94 566.36 540.34 577.58 553.87 589 567.52C597.22 577.41 596.15 583.78 587.09 579.38Q575.93 574.22 564.77 569.5 553.6 565.36 542.44 561.93 531.28 559.3 520.12 557.56 508.96 556.76 497.8 556.92 486.64 558.04 475.47 560.08 464.31 562.99 453.15 566.68 441.99 571.02 430.83 575.91 419.67 581.17 408.51 586.67 397.35 592.23 386.19 597.69 375.02 602.88 363.86 607.65 352.7 611.85 341.54 615.35 330.38 618.06 319.22 619.89 308.06 620.78 296.9 620.71 285.74 619.68 274.58 617.72 263.42 614.89 252.25 611.27 241.09 606.98 229.93 602.14C220.87 597.91 213.16 585.67 215.5 579.57Q218.64 570.98 221.72 562.25 224.8 553.35 227.99 544.28 231.36 535.02 235.01 525.56 239.01 515.9 243.42 506.03 248.31 495.95 253.71 485.64 259.64 475.13 266.11 464.39 273.1 453.45 280.57 442.3 288.48 430.95 296.75 419.41 305.29 407.69 314 395.8 322.77 383.75 331.5 371.56 340.05 359.24 348.32 346.81 356.2 334.28 363.6 321.66 370.42 308.98 376.6 296.26 382.11 283.49 386.92 270.71 391.02 257.94 394.46 245.17 398.43 226.09 399.57 219.75" stroke-dasharray="7 8" transform="rotate(36.36, 400, 400)" opacity="0.32"></path><path d="M403.49 230.31C405.22 220.73 417.45 217.29 424.36 224.4Q432.62 233.22 440.42 242.02 447.67 250.81 454.3 259.6 460.23 268.41 465.44 277.24 469.9 286.12 473.62 295.06 476.62 304.07 478.96 313.17 480.71 322.36 481.96 331.66 482.81 341.08 483.4 350.64 483.86 360.34 484.32 370.2 484.94 380.22 485.85 390.41 487.19 400.78 489.09 411.33 491.65 422.06 494.97 432.99 499.12 444.11 504.14 455.42 510.06 466.91 516.87 478.6 524.53 490.46 532.98 502.5 542.14 514.7 551.89 527.07 562.11 539.58 572.65 552.22C580.35 561.41 579.49 567.47 571.05 563.6Q560.64 559.17 550.23 555.24 539.83 551.91 529.42 549.26 519.01 547.37 508.6 546.29 498.2 546.04 487.79 546.64 477.38 548.06 466.98 550.28 456.57 553.22 446.16 556.82 435.75 560.97 425.35 565.57 414.94 570.49 404.53 575.6 394.13 580.77 383.72 585.85 373.31 590.72 362.9 595.24 352.5 599.3 342.09 602.77 331.68 605.58 321.28 607.65 310.87 608.91 300.46 609.35 290.06 608.94 279.65 607.7 269.24 605.66 258.83 602.87 248.43 599.41 238.02 595.38C229.58 591.75 222.2 580.36 224.29 574.45Q227.13 566.11 229.97 557.62 232.89 548.96 235.96 540.13 239.26 531.11 242.85 521.91 246.79 512.52 251.14 502.93 255.93 493.15 261.2 483.17 266.95 473 273.18 462.65 279.88 452.11 287.01 441.39 294.52 430.5 302.35 419.45 310.43 408.25 318.67 396.91 326.98 385.43 335.27 373.84 343.43 362.14 351.36 350.34 358.98 338.47 366.19 326.53 372.92 314.54 379.12 302.52 384.72 290.46 389.7 278.4 394.05 266.34 397.78 254.3 402.2 236.3 403.49 230.31" stroke-dasharray="10 2" transform="rotate(40.400000000000006, 400, 400)" opacity="0.87"></path><path d="M406.99 240.87C408.97 231.87 420.54 228.57 426.69 235.21Q433.97 243.45 440.78 251.66 447.05 259.87 452.74 268.08 457.79 276.3 462.21 284.55 465.97 292.82 469.1 301.15 473.37 318.01 476.19 335.12 476.97 343.83 477.54 352.66 478.01 361.61 478.5 370.69 479.13 379.9 480 389.26 481.24 398.77 482.95 408.44 485.21 418.27 488.11 428.26 491.71 438.42 496.06 448.76 501.18 459.26 507.08 469.93 513.74 480.77 521.14 491.77 529.2 502.94 537.86 514.25 547.02 525.72 556.57 537.33C563.62 545.77 562.81 551.59 554.98 548.31Q545.32 544.65 535.65 541.51 525.99 538.96 516.33 537.05 506.67 535.84 497.01 535.34 487.35 535.58 477.69 536.54 468.03 538.2 458.37 540.53 448.71 543.48 439.05 546.96 429.39 550.9 419.72 555.21 410.06 559.78 400.4 564.51 390.74 569.3 381.08 574.02 371.42 578.56 361.76 582.82 352.1 586.71 342.44 590.12 332.77 592.98 323.11 595.22 313.45 596.79 303.79 597.65 294.13 597.79 284.47 597.19 274.81 595.88 265.15 593.88 255.49 591.24 245.82 588.02C237.99 585.04 231.02 574.55 232.9 568.81Q235.51 560.7 238.19 552.44 241 544.02 243.99 535.43 247.24 526.68 250.78 517.75 254.67 508.65 258.95 499.37 263.64 489.92 268.75 480.3 274.31 470.52 280.29 460.57 286.68 450.47 293.45 440.22 300.56 429.82 307.95 419.29 315.56 408.63 323.33 397.86 331.17 386.98 339 376 346.74 364.94 354.31 353.8 361.63 342.6 368.62 331.35 375.22 320.06 381.37 308.74 387.01 297.4 392.12 286.06 396.67 274.73 400.66 263.41 405.54 246.5 406.99 240.87" stroke-dasharray="9 0" transform="rotate(44.44, 400, 400)" opacity="0.99"></path><path d="M409.98 251.43C412.22 243.01 423.1 239.85 428.46 246.03Q434.77 253.69 440.61 261.34 445.94 268.97 450.74 276.6 458.4 291.91 464.42 307.29 468 322.9 470.43 338.69 471.66 354.89 472.68 371.38 474.3 388.44 476.82 405.88 478.81 414.83 481.33 423.92 484.43 433.16 488.17 442.55 492.56 452.08 497.62 461.76 503.35 471.6 509.73 481.58 516.73 491.71 524.3 501.99 532.37 512.41 540.88 522.97C547.22 530.65 546.35 536.29 539.1 533.62Q530.18 530.75 521.25 528.37 512.32 526.56 503.39 525.33 494.46 524.72 485.53 524.73 476.61 525.37 467.68 526.63 458.75 528.48 449.82 530.87 440.89 533.77 431.96 537.12 423.04 540.83 414.11 544.85 405.18 549.08 396.25 553.44 387.32 557.85 378.4 562.21 369.47 566.42 360.54 570.42 351.61 574.11 342.68 577.42 333.76 580.28 324.83 582.64 315.9 584.44 306.97 585.65 298.04 586.24 289.12 586.21 280.19 585.55 271.26 584.27 262.33 582.41 253.41 580C246.16 577.67 239.69 568.12 241.41 562.54Q246.52 546.57 252.13 530.15 255.33 521.68 258.84 513.05 262.67 504.27 266.86 495.34 271.43 486.26 276.38 477.03 281.72 467.67 287.43 458.17 293.51 448.54 299.91 438.78 306.6 428.91 313.55 418.92 320.69 408.84 327.97 398.66 335.32 388.4 342.69 378.06 350 367.65 357.18 357.18 364.17 346.67 370.9 336.12 377.31 325.54 383.35 314.93 388.98 304.32 394.16 293.71 398.85 283.11 403.06 272.52 408.37 256.7 409.98 251.43" stroke-dasharray="4 4" transform="rotate(48.48, 400, 400)" opacity="0.94"></path><path d="M412.37 261.98C414.87 254.13 425.02 251.14 429.61 256.85Q439.64 271.01 448.3 285.14 454.63 299.28 459.59 313.49 462.58 327.86 464.66 342.38 465.83 357.22 466.87 372.29 468.41 387.82 470.7 403.65 474.87 420.05 480.46 436.81 484.19 445.41 488.48 454.14 493.35 463 498.79 471.99 504.77 481.11 511.28 490.37 518.28 499.75 525.71 509.26C531.29 516.18 530.25 521.65 523.59 519.6Q507.17 515.84 490.75 514.07 474.33 514.43 457.91 516.88 441.49 521.26 425.07 527.27 408.66 534.47 392.24 542.36 375.82 550.39 359.4 558.01 342.98 564.66 326.56 569.89 310.14 573.34 293.72 574.75 277.3 574.03 260.88 571.23C254.21 569.55 248.28 560.95 249.91 555.54Q254.87 540.09 260.39 524.24 263.57 516.08 267.03 507.79 270.79 499.37 274.89 490.82 279.32 482.15 284.08 473.36 289.19 464.46 294.62 455.44 300.35 446.31 306.37 437.09 312.65 427.77 319.14 418.37 325.8 408.88 332.59 399.32 339.46 389.69 346.35 380.01 353.2 370.27 359.97 360.49 366.59 350.68 373.02 340.83 379.2 330.97 385.08 321.09 390.63 311.21 395.81 301.33 400.59 291.46 404.95 281.6 410.63 266.88 412.37 261.98" stroke-dasharray="4 4" transform="rotate(52.52, 400, 400)" opacity="0.83"></path><path d="M414.13 272.52C416.84 265.25 426.23 262.43 430.06 267.69Q438.54 280.72 445.44 293.71 450.77 306.7 454.63 319.74 457.24 332.88 458.91 346.17 460.04 359.66 461.06 373.39 462.43 387.41 464.61 401.75 468 416.46 472.94 431.56 479.67 447.08 488.32 463.03 498.86 479.44 511.18 496.3C515.99 502.48 514.71 507.77 508.63 506.33Q493.61 503.92 478.59 503.28 463.57 504.42 448.55 507.29 433.54 511.71 418.52 517.42 403.5 524.07 388.48 531.28 373.46 538.6 358.44 545.6 343.42 551.87 328.41 557.02 313.39 560.75 298.37 562.84 283.35 563.16 268.33 561.69C262.24 560.6 256.88 552.96 258.45 547.74Q263.24 532.93 268.81 517.67 275.36 501.96 283.02 485.83 291.85 469.29 301.83 452.39 312.85 435.15 324.72 417.62 337.2 399.84 349.97 381.86 362.68 363.73 375 345.5 386.56 327.21 397.09 308.92 406.33 290.68 414.13 272.52 414.13 272.52 414.13 272.52" stroke-dasharray="3 7" transform="rotate(56.56, 400, 400)" opacity="0.59"></path><path d="M415.18 283.04C418.05 276.38 426.68 273.74 429.8 278.53Q436.65 290.43 442.19 302.29 446.45 314.15 449.56 326.04 451.71 338 453.17 350.07 454.24 362.28 455.25 374.68 456.56 387.3 458.52 400.16 461.43 413.32 465.58 426.78 471.16 440.57 478.31 454.73 487.05 469.25 497.34 484.15C501.4 489.61 499.88 494.73 494.34 493.83Q480.69 492.64 467.04 492.94 453.38 494.7 439.73 497.84 426.08 502.21 412.43 507.58 398.77 513.68 385.12 520.2 371.47 526.83 357.82 533.22 344.16 539.05 330.51 544.04 316.86 547.92 303.2 550.51 289.55 551.68 275.9 551.35C270.36 550.8 265.6 544.07 267.16 539.07Q271.92 524.94 277.45 510.43 283.88 495.56 291.29 480.35 299.71 464.83 309.09 449.02 319.34 432.96 330.31 416.68 341.8 400.22 353.56 383.61 365.33 366.9 376.84 350.11 387.8 333.3 397.98 316.49 407.16 299.73 415.18 283.04 415.18 283.04 415.18 283.04" stroke-dasharray="6 5" transform="rotate(60.599999999999994, 400, 400)" opacity="0.31"></path><path d="M415.53 293.56C418.49 287.48 426.34 285.03 428.81 289.38Q434.22 300.16 438.56 310.9 441.91 321.64 444.4 332.39 446.17 343.19 447.44 354.07 448.45 365.04 449.45 376.16 450.69 387.43 452.44 398.89 454.93 410.56 458.38 422.47 462.95 434.64 468.76 447.08 475.87 459.82 484.28 472.86C487.61 477.63 485.86 482.53 480.86 482.12Q468.54 481.96 456.21 483.01 443.89 485.22 431.56 488.51 419.24 492.73 406.92 497.72 394.59 503.26 382.27 509.12 369.94 515.07 357.62 520.84 345.29 526.21 332.97 530.95 320.64 534.86 308.32 537.78 295.99 539.59 283.67 540.21C278.67 540.12 274.54 534.26 276.09 529.53Q280.84 516.18 286.31 502.53 292.58 488.6 299.69 474.42 307.64 460 316.39 445.37 325.85 430.55 335.9 415.58 346.38 400.48 357.12 385.27 367.91 370 378.55 354.68 388.81 339.35 398.51 324.04 411.5 301.16 415.53 293.56" stroke-dasharray="3 6" transform="rotate(64.64, 400, 400)" opacity="0.12"></path><path d="M415.19 304.08C418.15 298.6 425.21 296.34 427.11 300.24Q431.26 309.91 434.59 319.55 437.19 329.17 439.15 338.8 440.61 348.46 441.73 358.17 442.68 367.95 443.64 377.82 444.81 387.8 446.36 397.91 448.47 408.18 451.31 418.62 455 429.25 459.64 440.09 465.3 451.15 472 462.43C474.67 466.56 472.73 471.22 468.25 471.21Q457.22 471.88 446.19 473.49 435.17 475.99 424.14 479.3 413.11 483.3 402.08 487.87 391.05 492.84 380.02 498.05 368.99 503.33 357.96 508.49 346.93 513.36 335.9 517.78 324.87 521.6 313.84 524.69 302.81 526.95 291.78 528.3C287.31 528.57 283.8 523.54 285.35 519.12Q290.07 506.67 295.44 494 301.49 481.12 308.23 468.06 315.66 454.83 323.72 441.45 332.36 427.94 341.48 414.32 350.95 400.62 360.65 386.85 370.43 373.04 380.14 359.21 389.61 345.38 398.7 331.57 411.23 310.94 415.19 304.08" stroke-dasharray="4 6" transform="rotate(68.68, 400, 400)" opacity="0.19"></path><path d="M414.17 314.58C417.07 309.69 423.31 307.65 424.73 311.11Q427.83 319.67 430.33 328.21 433.68 345.26 436.04 362.35 436.93 370.96 437.84 379.63 438.92 388.38 440.28 397.21 442.06 406.15 444.37 415.2 447.3 424.39 450.93 433.72 455.33 443.21 460.54 452.87C462.62 456.4 460.53 460.75 456.58 461.05Q446.81 462.33 437.05 464.31 427.28 466.94 417.52 470.16 407.75 473.88 397.99 477.99 388.22 482.39 378.45 486.97 368.69 491.59 358.92 496.14 349.16 500.5 339.39 504.54 329.62 508.17 319.86 511.28 310.09 513.8 300.32 515.64C296.37 516.19 293.45 511.94 295 507.86Q299.66 496.44 304.85 484.86 310.6 473.14 316.91 461.29 323.76 449.33 331.1 437.27 338.89 425.13 347.06 412.92 355.51 400.65 364.16 388.35 372.91 376.02 381.63 363.69 390.23 351.37 398.59 339.07 410.39 320.69 414.17 314.58" stroke-dasharray="9 3" transform="rotate(72.72, 400, 400)" opacity="0.88"></path><path d="M412.54 325.09C415.28 320.79 420.71 318.97 421.73 321.99Q425.64 336.89 428.51 351.75 430.35 366.64 432.05 381.6 434.36 396.79 437.54 412.18 442.89 428 449.87 444.13C451.42 447.09 449.3 451.09 445.84 451.62Q437.31 453.29 428.78 455.46 420.26 458.08 411.73 461.11 403.2 464.48 394.68 468.11 386.15 471.94 377.62 475.89 369.1 479.88 360.57 483.83 352.04 487.65 343.52 491.26 334.99 494.61 326.46 497.6 317.94 500.19 309.41 502.33C305.94 503.05 303.6 499.51 305.12 495.83Q309.62 485.55 314.56 475.18 319.94 464.71 325.74 454.16 331.94 443.55 338.52 432.87 345.43 422.14 352.63 411.38 360.06 400.59 367.64 389.77 375.33 378.95 383.03 368.14 390.68 357.33 398.19 346.55 409.02 330.44 412.54 325.09" stroke-dasharray="3 8" transform="rotate(76.76, 400, 400)" opacity="0.85"></path><path d="M410.36 335.57C412.85 331.89 417.48 330.3 418.19 332.87Q421.09 345.61 423.15 358.29 424.74 370.98 426.26 383.71 428.14 396.53 430.81 409.52 434.64 422.7 439.94 436.14C441.06 438.59 438.98 442.17 436.02 442.82Q421.41 446.87 406.79 452.11 392.18 458.21 377.56 464.81 362.94 471.53 348.33 477.95 333.71 483.69 319.09 488.41C316.13 489.22 314.31 486.32 315.76 483.09Q324.6 465.01 334.71 446.72 345.98 428.27 358.2 409.72 371.1 391.13 384.35 372.54 397.56 354.01 410.36 335.57 410.36 335.57 410.36 335.57" stroke-dasharray="2 5" transform="rotate(80.80000000000001, 400, 400)" opacity="0.80"></path><path d="M407.73 346.05C409.89 342.97 413.73 341.62 414.2 343.75Q416.22 354.34 417.79 364.87 419.13 375.4 420.47 385.93 422.07 396.51 424.16 407.17 426.98 417.93 430.7 428.83C431.47 430.81 429.54 433.9 427.06 434.59Q414.86 438.51 402.66 443.14 390.46 448.28 378.26 453.73 366.06 459.25 353.86 464.61 341.66 469.6 329.46 474C326.98 474.8 325.62 472.49 326.96 469.75Q334.96 454.42 343.83 439 353.47 423.5 363.77 407.97 374.55 392.43 385.61 376.91 396.75 361.44 407.73 346.05 407.73 346.05 407.73 346.05" stroke-dasharray="11 10" transform="rotate(84.84, 400, 400)" opacity="0.89"></path><path d="M404.73 356.53C406.52 354.06 409.55 352.96 409.87 354.66Q412.4 371.5 414.68 388.28 417.78 405.12 422.07 422.09C422.58 423.63 420.87 426.19 418.89 426.84Q409.09 430.34 399.3 434.21 389.5 438.35 379.7 442.66 369.91 447.01 360.11 451.29 350.31 455.39 340.51 459.2C338.53 459.93 337.56 458.15 338.75 455.92Q345.65 443.51 353.1 431.07 361.01 418.61 369.33 406.14 377.97 393.68 386.82 381.25 400.26 362.7 404.73 356.53" stroke-dasharray="11 4" transform="rotate(88.88, 400, 400)" opacity="0.39"></path><path d="M401.49 366.99C402.86 365.14 405.11 364.3 405.32 365.56Q407.13 378.16 408.9 390.7 411.04 403.23 413.95 415.8C414.26 416.94 412.89 418.9 411.38 419.45Q396.61 425.27 381.84 431.57 367.07 437.98 352.29 444.11C350.79 444.7 350.16 443.42 351.13 441.72Q362.51 422.98 374.9 404.24 388.01 385.56 401.49 366.99 401.49 366.99 401.49 366.99" stroke-dasharray="0 2" transform="rotate(92.92, 400, 400)" opacity="0.81"></path><path d="M398.13 377.46C399.05 376.21 400.54 375.64 400.66 376.49Q403.2 393.19 406.24 409.83C406.41 410.58 405.43 411.92 404.43 412.32Q394.51 416.33 384.6 420.5 374.68 424.72 364.76 428.87C363.75 429.28 363.39 428.44 364.08 427.31Q372.06 414.79 380.46 402.29 393.66 383.65 398.13 377.46" stroke-dasharray="9 3" transform="rotate(96.96, 400, 400)" opacity="0.95"></path></g></svg>