<svg xmlns="http://www.w3.org/2000/svg" version="1.1" xmlns:xlink="http://www.w3.org/1999/xlink" xmlns:svgjs="http://svgjs.dev/svgjs" viewBox="0 0 800 800"><g transform="matrix(0.06975647374412546,0.9975640502598242,-0.9975640502598242,0.06975647374412546,779.1230306062795,3.0717903984201484)"><path d="M658.6623831278273 346.4329572040176C669.0427985496832 325.4572811609431 698.9571656504669 325.4572811609431 709.3375810723228 346.4329572040176L1031.0315172817243 996.4923384451465C1040.329225975211 1015.2799857473398 1026.6582867104794 1037.2987917715323 1005.6967452199946 1037.2987917715323H362.3032189801555C341.34167748967053 1037.2987917715323 327.67073822493904 1015.2799857473398 336.96844691842585 996.4923384451465L658.6623831278273 346.4329572040176Z " stroke-width="0.5" stroke="#cb347a" fill="none" opacity="0.1" transform="rotate(100, 392, 400)"></path><path d="M648.5570413836735 336.7895590357136C658.9220980276093 315.84491843168234 688.7922040750296 315.84491843168234 699.1572607189653 336.7895590357136L1020.3752212064244 985.8871177229652C1029.659173086028 1004.6469669755787 1016.0084612314329 1026.633194154123 995.0779342666227 1026.633194154123H352.6363678360162C331.7058408712059 1026.633194154123 318.055129016611 1004.6469669755787 327.33908089621457 985.8871177229652L648.5570413836735 336.7895590357136Z " stroke-width="0.5535714285714286" stroke="#c7377d" fill="none" opacity="0.12178571428571429" transform="rotate(96.42857142857143, 392, 400)"></path><path d="M638.4516691219416 327.14616086740944C648.8013669879573 306.2325557024215 678.6272119820143 306.2325557024215 688.9769098480298 327.14616086740944L1009.7188946135464 975.2818970007838C1018.9890896792667 994.0139482038176 1005.3586052348084 1015.9675965367139 984.4590927956729 1015.9675965367139H342.9694861742986C322.06997373516305 1015.9675965367139 308.4394892907047 994.0139482038176 317.70968435642504 975.2818970007838L638.4516691219416 327.14616086740944Z " stroke-width="0.6071428571428571" stroke="#c43a80" fill="none" opacity="0.14357142857142857" transform="rotate(92.85714285714286, 392, 400)"></path><path d="M628.3462968602097 317.50276269910535C638.6806359483053 296.6201929731608 668.4622198889988 296.6201929731608 678.7965589770944 317.50276269910535L999.0625680206684 964.6766762786026C1008.3190062725056 983.3809294320566 994.7087492381837 1005.3019989193049 973.840251324723 1005.3019989193049H333.3026045125812C312.4341065991203 1005.3019989193049 298.82384956479854 983.3809294320566 308.0802878166357 964.6766762786026L628.3462968602097 317.50276269910535Z " stroke-width="0.6607142857142857" stroke="#c03d82" fill="none" opacity="0.16535714285714287" transform="rotate(89.28571428571428, 392, 400)"></path><path d="M618.2409245984778 307.85936453080126C628.5599049086534 287.0078302439 658.2972277959835 287.0078302439 668.616208106159 307.85936453080126L988.4062414277905 954.0714555564214C997.6489228657445 972.7479106602956 984.0588932415592 994.6364013018958 963.2214098537731 994.6364013018958H323.6357228508637C302.7982394630775 994.6364013018958 289.20820983889234 972.7479106602956 298.4508912768463 954.0714555564214L618.2409245984778 307.85936453080126Z " stroke-width="0.7142857142857143" stroke="#bc4085" fill="none" opacity="0.18714285714285717" transform="rotate(85.71428571428571, 392, 400)"></path><path d="M608.135552336746 298.2159663624972C618.4391738690014 277.3954675146393 648.132235702968 277.3954675146393 658.4358572352235 298.2159663624972L977.7499148349126 943.4662348342401C986.9788394589832 962.1148918885345 973.4090372449344 983.9708036844868 952.6025683828233 983.9708036844868H313.96884118914625C293.16237232703475 983.9708036844868 279.5925701129862 962.1148918885345 288.8214947370569 943.4662348342401L608.135552336746 298.2159663624972Z " stroke-width="0.7678571428571428" stroke="#b84288" fill="none" opacity="0.20892857142857144" transform="rotate(82.14285714285714, 392, 400)"></path><path d="M598.030180075014 288.5725987117712C608.3184428293494 267.78313530295657 637.9672436099527 267.78313530295657 648.2555063642878 288.5725987117712L967.0935882420345 932.8610446296369C976.3087560522221 951.4819036343516 962.7591812483099 973.3052365846557 941.9837269118733 973.3052365846557H304.30195952742866C283.5265051909919 973.3052365846557 269.9769303870799 951.4819036343516 279.1920981972674 932.8610446296369L598.030180075014 288.5725987117712Z " stroke-width="0.8214285714285714" stroke="#b4458a" fill="none" opacity="0.23071428571428573" transform="rotate(78.57142857142857, 392, 400)"></path><path d="M587.9248078132821 278.9292005434671C598.1977117896973 258.1707725736958 627.8022515169373 258.1707725736958 638.0751554933524 278.9292005434671L956.4372616491565 922.2558239074557C965.6386726454608 940.8488848625906 952.1093252516853 962.6396389672467 931.3648854409233 962.6396389672467H294.6350778657112C273.89063805494914 962.6396389672467 260.36129066117377 940.8488848625906 269.562701657478 922.2558239074557L587.9248078132821 278.9292005434671Z " stroke-width="0.875" stroke="#b0478d" fill="none" opacity="0.2525" transform="rotate(75, 392, 400)"></path><path d="M577.8194660691283 269.28580237516303C588.0770112676234 248.5584098444351 617.6372899415 248.5584098444351 627.8948351399952 269.28580237516303L945.7809655738567 911.6506031852745C954.9686197562777 930.2158660908294 941.4594997726388 951.9740413498375 920.7460744875515 951.9740413498375H284.9682267215719C264.25480143648446 951.9740413498375 250.7456814528457 930.2158660908294 259.93333563526676 911.6506031852745L577.8194660691283 269.28580237516303Z " stroke-width="0.9285714285714286" stroke="#ac498f" fill="none" opacity="0.2742857142857143" transform="rotate(71.42857142857143, 392, 400)"></path><path d="M567.7140938073965 259.64240420685894C577.9562802279715 238.94604711517434 607.4722978484847 238.94604711517434 617.7144842690597 259.64240420685894L935.1246389809788 901.0453824630933C944.2985363495167 919.5828473190686 930.8096437760144 941.3084437324286 910.1272330166017 941.3084437324286H275.30134505985444C254.6189343004417 941.3084437324286 241.13004172693957 919.5828473190686 250.30393909547735 901.0453824630933L567.7140938073965 259.64240420685894Z " stroke-width="0.9821428571428571" stroke="#a84c92" fill="none" opacity="0.2960714285714286" transform="rotate(67.85714285714286, 392, 400)"></path><path d="M557.6087215456645 249.9990060385548C567.8355491883195 229.3336843859135 597.3073057554692 229.3336843859135 607.534133398124 249.9990060385548L924.4683123881007 890.4401617409118C933.6284529427553 908.9498285473072 920.1597877793896 930.6428461150193 899.5083915456516 930.6428461150193H265.63446339813686C244.98306716439885 930.6428461150193 231.51440200103326 908.9498285473072 240.67454255568788 890.4401617409118L557.6087215456645 249.9990060385548Z " stroke-width="1.0357142857142856" stroke="#a34e94" fill="none" opacity="0.31785714285714284" transform="rotate(64.28571428571428, 392, 400)"></path><path d="M547.5033492839326 240.35560787025074C557.7148181486675 219.72132165665275 587.1423136624538 219.72132165665275 597.3537825271886 240.35560787025074L913.8119857952229 879.8349410187307C922.9583695359942 898.3168097755464 909.5099317827651 919.9772484976104 888.8895500747019 919.9772484976104H255.9675817364194C235.3472000283561 919.9772484976104 221.89876227512707 898.3168097755464 231.04514601589847 879.8349410187307L547.5033492839326 240.35560787025074Z " stroke-width="1.0892857142857144" stroke="#9f5096" fill="none" opacity="0.33964285714285714" transform="rotate(60.714285714285715, 392, 400)"></path><path d="M537.3979770222007 230.71220970194668C547.5940871090155 210.10895892739202 576.9773215694385 210.10895892739202 587.1734316562532 230.71220970194668L903.1556592023449 869.2297202965493C912.288286129233 887.6837910037854 898.8600757861404 909.3116508802012 878.270708603752 909.3116508802012H246.30070007470192C225.71133289231335 909.3116508802012 212.28312254922093 887.6837910037854 221.4157494761091 869.2297202965493L537.3979770222007 230.71220970194668Z " stroke-width="1.1428571428571428" stroke="#9a5299" fill="none" opacity="0.36142857142857143" transform="rotate(57.14285714285714, 392, 400)"></path><path d="M527.292635278047 221.0688115336425C537.4733865869416 200.49659619813116 566.8123599940011 200.49659619813116 576.9931113028957 221.0688115336425L892.4993631270451 858.6244995743681C901.6182332400499 877.0507722320242 888.210250307094 898.6460532627922 867.6518976503802 898.6460532627922H236.63384893056252C216.07549627384856 898.6460532627922 202.66751334089275 877.0507722320242 211.7863834538977 858.6244995743681L527.292635278047 221.0688115336425Z " stroke-width="1.1964285714285714" stroke="#95549b" fill="none" opacity="0.38321428571428573" transform="rotate(53.57142857142857, 392, 400)"></path><path d="M517.187263016315 211.42541336533844C527.3526555472897 190.88423346887043 556.6473679009857 190.88423346887043 566.8127604319602 211.42541336533844L881.8430365341669 848.0192788521867C890.9481498332887 866.4177534602632 877.5603943104693 887.980455645383 857.0330561794303 887.980455645383H226.96696726884505C206.4396291378058 887.980455645383 193.05187361498662 866.4177534602632 202.1569869141083 848.0192788521867L517.187263016315 211.42541336533844Z " stroke-width="1.25" stroke="#90569d" fill="none" opacity="0.405" transform="rotate(50, 392, 400)"></path><path d="M507.0818907545831 201.78201519703438C517.2319245076376 181.27187073960968 546.4823758079704 181.27187073960968 556.6324095610248 201.78201519703438L871.186709941289 837.4140581300055C880.2780664265275 855.7847346885022 866.9105383138447 877.314858027974 846.4142147084804 877.314858027974H217.30008560712758C196.80376200176306 877.314858027974 183.43623388908043 855.7847346885022 192.52759037431895 837.4140581300055L507.0818907545831 201.78201519703438Z " stroke-width="1.3035714285714284" stroke="#8b58a0" fill="none" opacity="0.4267857142857143" transform="rotate(46.42857142857142, 392, 400)"></path><path d="M496.97651849285126 192.13861702873032C507.1111934679857 171.65950801034896 536.317383714955 171.65950801034896 546.4520586900894 192.13861702873032L860.5303833484112 826.8088374078243C869.6079830197664 845.1517159167411 856.2606823172202 866.6492604105649 835.7953732375306 866.6492604105649H207.63320394541012C187.1678948657203 866.6492604105649 173.8205941631743 845.1517159167411 182.89819383452954 826.8088374078243L496.97651849285126 192.13861702873032Z " stroke-width="1.3571428571428572" stroke="#865aa2" fill="none" opacity="0.4485714285714286" transform="rotate(42.857142857142854, 392, 400)"></path><path d="M486.87114623111927 182.49521886042615C496.9904624283337 162.0471452810881 526.1523916219395 162.0471452810881 536.2717078191537 182.49521886042615L849.874056755533 816.2036166856429C858.937899613005 834.51869714498 845.6108263205955 855.9836627931558 825.1765317665805 855.9836627931558H197.96632228369253C177.53202772967745 855.9836627931558 164.204954437268 834.51869714498 173.26879729474007 816.2036166856429L486.87114623111927 182.49521886042615Z " stroke-width="1.4107142857142856" stroke="#805ca4" fill="none" opacity="0.4703571428571429" transform="rotate(39.285714285714285, 392, 400)"></path><path d="M476.7657739693875 172.85185120970021C486.86973138868166 152.4348130694055 515.9873995289241 152.4348130694055 526.0913569482183 172.85185120970021L839.2177301626551 805.5984264810398C848.267816206244 823.8857088907972 834.960970323971 845.3180956933248 814.5576902956307 845.3180956933248H188.29944062197512C167.89616059363465 845.3180956933248 154.58931471136185 823.8857088907972 163.63940075495066 805.5984264810398L476.7657739693875 172.85185120970021Z " stroke-width="1.4642857142857142" stroke="#7b5ea6" fill="none" opacity="0.4921428571428572" transform="rotate(35.71428571428571, 392, 400)"></path><path d="M466.6604017076555 163.20845304139615C476.74900034902964 142.82245034014474 505.82240743590876 142.82245034014474 515.9110060772829 163.20845304139615L828.5614035697771 794.9932057588585C837.5977327994827 813.2526901190361 824.3111143273463 834.6524980759158 803.9388488246808 834.6524980759158H178.63255896025765C158.2602934575919 834.6524980759158 144.97367498545566 813.2526901190361 154.0100042151613 794.9932057588585L466.6604017076555 163.20845304139615Z " stroke-width="1.5178571428571428" stroke="#755fa8" fill="none" opacity="0.5139285714285714" transform="rotate(32.14285714285714, 392, 400)"></path><path d="M456.55505996350195 153.565054873092C466.6282998269558 133.21008761088396 495.65744586047146 133.21008761088396 505.73068572392555 153.565054873092L817.9051074944773 784.3879850366773C826.9276799102997 802.619671347275 813.6612888483 823.9869004585066 793.3200378713091 823.9869004585066H168.96570781611825C148.62445683912722 823.9869004585066 135.35806577712754 802.619671347275 144.38063819294996 784.3879850366773L456.55505996350195 153.565054873092Z " stroke-width="1.5714285714285714" stroke="#6e61aa" fill="none" opacity="0.5357142857142857" transform="rotate(28.57142857142857, 392, 400)"></path><path d="M446.4496877017699 143.9216567047879C456.50756878730385 123.59772488162315 485.492453767456 123.59772488162315 495.55033485298986 143.9216567047879L807.2487809015994 773.782764314496C816.2575965035385 791.986652575514 803.0114328516753 813.3213028410976 782.7011964003591 813.3213028410976H159.29882615440073C138.98858970308441 813.3213028410976 125.74242605122134 791.986652575514 134.7512416531605 773.782764314496L446.4496877017699 143.9216567047879Z " stroke-width="1.625" stroke="#6763ac" fill="none" opacity="0.5575" transform="rotate(25, 392, 400)"></path><path d="M436.34431544003803 134.27825853648383C446.38683774765184 113.98536215236243 475.32746167444066 113.98536215236243 485.36998398205446 134.27825853648383L796.5924543087214 763.1775435923147C805.5875130967772 781.3536338037528 792.3615768550507 802.6557052236884 772.0823549294091 802.6557052236884H149.63194449268326C129.35272256704167 802.6557052236884 116.12678632531515 781.3536338037528 125.12184511337114 763.1775435923147L436.34431544003803 134.27825853648383Z " stroke-width="1.6785714285714286" stroke="#6064ae" fill="none" opacity="0.5792857142857143" transform="rotate(21.42857142857143, 392, 400)"></path><path d="M426.2389431783061 124.63486036817972C436.26610670799977 104.37299942310162 465.1624695814252 104.37299942310162 475.189633111119 124.63486036817972L785.9361277158434 752.5723228701333C794.9174296900162 770.7206150319919 781.7117208584261 791.9901076062793 761.4635134584594 791.9901076062793H139.9650628309658C119.7168554309988 791.9901076062793 106.51114659940896 770.7206150319919 115.49244857358167 752.5723228701333L426.2389431783061 124.63486036817972Z " stroke-width="1.732142857142857" stroke="#5866b0" fill="none" opacity="0.6010714285714286" transform="rotate(17.857142857142847, 392, 400)"></path><path d="M416.1335709165742 114.9914621998756C426.1453756683478 94.76063669384084 454.9974774884098 94.76063669384084 465.0092822401833 114.9914621998756L775.2798011229653 741.9671021479521C784.2473462832548 760.0875962602308 771.0618648618014 781.3245099888702 750.8446719875093 781.3245099888702H130.29818116924827C110.080988294956 781.3245099888702 96.89550687350271 760.0875962602308 105.86305203379226 741.9671021479521L416.1335709165742 114.9914621998756Z " stroke-width="1.7857142857142856" stroke="#5068b2" fill="none" opacity="0.6228571428571429" transform="rotate(14.285714285714278, 392, 400)"></path><path d="M406.0281986548423 105.34806403157154C416.0246446286959 85.14827396458008 444.83248539539443 85.14827396458008 454.8289313692479 105.34806403157154L764.6234745300875 731.3618814257709C773.5772628764938 749.4545774884697 760.4120088651769 770.6589123714612 740.2258305165595 770.6589123714612H120.6312995075308C100.44512115891325 770.6589123714612 87.27986714759658 749.4545774884697 96.23365549400285 731.3618814257709L406.0281986548423 105.34806403157154Z " stroke-width="1.8392857142857142" stroke="#4669b4" fill="none" opacity="0.6446428571428572" transform="rotate(10.714285714285708, 392, 400)"></path><path d="M395.92282639311037 95.70466586326742C405.9039135890437 75.5359112353193 434.667493302379 75.5359112353193 444.64858049831247 95.70466586326742L753.9671479372096 720.7566607035897C762.9071794697325 738.8215587167088 749.7621528685522 759.9933147540521 729.6069890456095 759.9933147540521H110.96441784581327C90.80925402287045 759.9933147540521 77.66422742169033 738.8215587167088 86.60425895421338 720.7566607035897L395.92282639311037 95.70466586326742Z " stroke-width="1.8928571428571428" stroke="#3b6bb6" fill="none" opacity="0.6664285714285715" transform="rotate(7.142857142857139, 392, 400)"></path><path d="M385.8174846489566 86.06126769496336C395.78321306696995 65.92354850605855 424.50253172694175 65.92354850605855 434.4682601449552 86.06126769496336L743.3108518619097 710.1514399814084C752.2371265805496 728.1885399449477 739.1123273895059 749.3277171366431 718.9881780922378 749.3277171366431H101.29756670167393C81.17341740440582 749.3277171366431 68.04861821336226 728.1885399449477 76.97489293200215 710.1514399814084L385.8174846489566 86.06126769496336Z " stroke-width="1.9464285714285714" stroke="#2d6cb8" fill="none" opacity="0.6882142857142857" transform="rotate(3.5714285714285694, 392, 400)"></path><path d="M375.7121123872248 76.41786952665925C385.662482027318 56.31118577679777 414.3375396339263 56.31118577679777 424.2879092740195 76.41786952665925L732.6545252690316 699.546219259227C741.5670431737883 717.5555211731865 728.4624713928812 738.6621195192339 708.369336621288 738.6621195192339H91.63068503995646C71.53755026836296 738.6621195192339 58.43297848745607 717.5555211731865 67.34549639221268 699.546219259227L375.7121123872248 76.41786952665925Z " stroke-width="2" stroke="#176eba" fill="none" opacity="0.71" transform="rotate(0, 392, 400)"></path></g></svg>