<svg id="visual" viewBox="0 0 900 600" width="900" height="600" xmlns="http://www.w3.org/2000/svg" xmlns:xlink="http://www.w3.org/1999/xlink" version="1.1"><path d="M0 423L21.5 417.8C43 412.7 86 402.3 128.8 417C171.7 431.7 214.3 471.3 257.2 488.8C300 506.3 343 501.7 385.8 486.8C428.7 472 471.3 447 514.2 446.7C557 446.3 600 470.7 642.8 478.8C685.7 487 728.3 479 771.2 476.2C814 473.3 857 475.7 878.5 476.8L900 478L900 601L878.5 601C857 601 814 601 771.2 601C728.3 601 685.7 601 642.8 601C600 601 557 601 514.2 601C471.3 601 428.7 601 385.8 601C343 601 300 601 257.2 601C214.3 601 171.7 601 128.8 601C86 601 43 601 21.5 601L0 601Z" fill="#0066FF" stroke-linecap="round" stroke-linejoin="miter"></path></svg>